<svg xmlns="http://www.w3.org/2000/svg" width="88" height="88" viewBox="0 0 88 88"><defs><mask id="rr39b" width="2" height="2" x="-1" y="-1"><path fill="#fff" d="M13 14h61v60H13z"/><path d="M43.937 14c16.569 0 30 13.431 30 30 0 16.568-13.431 30-30 30-16.568 0-30-13.432-30-30 0-16.569 13.432-30 30-30z"/></mask><filter id="rr39a" width="121" height="120" x="-17" y="-16" filterUnits="userSpaceOnUse"><feOffset in="SourceGraphic" result="FeOffset1092Out"/><feGaussianBlur in="FeOffset1092Out" result="FeGaussianBlur1093Out" stdDeviation="8 8"/></filter></defs><g><g><g filter="url(#rr39a)"><path fill="none" d="M43.937 14c16.569 0 30 13.431 30 30 0 16.568-13.431 30-30 30-16.568 0-30-13.432-30-30 0-16.569 13.432-30 30-30z" mask="url(&quot;#rr39b&quot;)"/><path fill-opacity=".08" d="M43.937 14c16.569 0 30 13.431 30 30 0 16.568-13.431 30-30 30-16.568 0-30-13.432-30-30 0-16.569 13.432-30 30-30z"/></g><path fill="#fff" d="M43.937 14c16.569 0 30 13.431 30 30 0 16.568-13.431 30-30 30-16.568 0-30-13.432-30-30 0-16.569 13.432-30 30-30z"/></g></g></svg>